HIERARCHY
ROOT Hips
{
	OFFSET 0.000000 0.000000 0.000000
	CHANNELS 6 Xposition Yposition Zposition Zrotation Yrotation Xrotation 
	JOINT LHipJoint
	{
		OFFSET 0.000000 0.000000 0.000000
		CHANNELS 3 Zrotation Yrotation Xrotation
		JOINT LeftUpLeg
		{
			OFFSET 1.363060 -1.794630 0.839290
			CHANNELS 3 Zrotation Yrotation Xrotation
			JOINT LeftLeg
			{
				OFFSET 2.448110 -6.726130 0.000000
				CHANNELS 3 Zrotation Yrotation Xrotation
				JOINT LeftFoot
				{
					OFFSET 2.562200 -7.039590 0.000000
					CHANNELS 3 Zrotation Yrotation Xrotation
					JOINT LeftToeBase
					{
						OFFSET 0.157640 -0.433110 2.322550
						CHANNELS 3 Zrotation Yrotation Xrotation
						End Site
						{
							OFFSET 0.000000 0.000000 0.000000
						}
					}
				}
			}
		}
	}
	JOINT RHipJoint
	{
		OFFSET 0.000000 0.000000 0.000000
		CHANNELS 3 Zrotation Yrotation Xrotation
		JOINT RightUpLeg
		{
			OFFSET -1.305520 -1.794630 0.839290
			CHANNELS 3 Zrotation Yrotation Xrotation
			JOINT RightLeg
			{
				OFFSET -2.542530 -6.985550 0.000000
				CHANNELS 3 Zrotation Yrotation Xrotation
				JOINT RightFoot
				{
					OFFSET -2.568260 -7.056230 0.000000
					CHANNELS 3 Zrotation Yrotation Xrotation
					JOINT RightToeBase
					{
						OFFSET -0.164730 -0.452590 2.363150
						CHANNELS 3 Zrotation Yrotation Xrotation
						End Site
						{
							OFFSET 0.000000 0.000000 0.000000
						}
					}
				}
			}
		}
	}
}
MOTION
Frames: 25
Frame Time: 0.008333
1.490486 16.703579 2.544240 -45.268182 -59.356567 39.408649 -13.834552 -3.007738 -2.139294 9.638189 -16.138249 -6.845879 0.368620 3.109500 42.868118 2.988148 16.042416 -21.185617 -3.712400 0.000000 -34.591401 2.690572 6.917693 -1.469706 5.445140 -5.113450 -138.183001 -5.831726 -10.244659 107.682459 -1.474753 -2.918832 -25.655537 1.279800 -0.000000 -64.097200
1.487895 16.661168 2.545543 -45.131139 -59.636478 39.170577 -13.845640 -3.025969 -2.295079 9.313602 -15.888497 -6.961622 0.327717 3.184194 43.678560 2.989973 16.046005 -21.638823 -3.848700 0.000001 -34.826101 2.690356 6.955377 -1.388987 4.969157 -5.133438 -138.048540 -5.565511 -10.152753 106.499364 -1.557075 -3.252995 -25.813902 1.381700 0.000000 -63.556500
1.486909 16.618771 2.547688 -44.965223 -59.924490 38.941018 -13.856011 -3.038245 -2.436712 8.985231 -15.648673 -7.140710 0.289089 3.256270 44.490776 2.991522 16.053519 -22.075442 -3.981400 -0.000001 -35.112200 2.700866 6.981184 -1.296992 4.496291 -5.198132 -137.702407 -5.263787 -10.030858 105.012797 -1.664788 -3.808092 -25.658065 1.507100 -0.000000 -62.664501
1.488436 16.576414 2.550786 -44.791363 -60.223472 38.733958 -13.868070 -3.047613 -2.570091 8.655061 -15.422639 -7.365888 0.252639 3.327823 45.299917 2.995179 16.076862 -22.500836 -4.114600 -0.000000 -35.365300 2.720753 6.993713 -1.195859 4.023811 -5.310049 -137.107612 -4.913592 -9.872778 103.137068 -1.799559 -4.584469 -25.165186 1.641900 0.000000 -61.435600
1.493262 16.534282 2.555196 -44.636741 -60.538955 38.579379 -13.885278 -3.055614 -2.696260 8.331416 -15.213357 -7.639608 0.219957 3.400338 46.108029 3.002862 16.130807 -22.905294 -4.248900 -0.000000 -35.646600 2.748880 6.989603 -1.082506 3.550736 -5.461014 -136.240289 -4.498341 -9.674752 100.776447 -1.961626 -5.546965 -24.366860 1.763500 -0.000000 -59.825900
1.502171 16.492640 2.560746 -44.520345 -60.887483 38.484442 -13.906105 -3.065904 -2.827271 8.001670 -15.007365 -7.929157 0.189651 3.474659 46.896245 3.016002 16.220665 -23.291828 -4.386900 -0.000001 -35.861700 2.786123 6.967343 -0.957183 3.069880 -5.634118 -135.077234 -4.005250 -9.431551 97.845099 -2.146694 -6.627682 -23.325014 1.844400 -0.000000 -57.955300
1.515412 16.452169 2.567532 -44.456535 -61.286920 38.472056 -13.929371 -3.079479 -2.966127 7.659811 -14.796013 -8.234409 0.162456 3.549988 47.655781 3.036108 16.357923 -23.648091 -4.528700 0.000000 -36.048300 2.834630 6.922865 -0.810199 2.569302 -5.801840 -133.614768 -3.423804 -9.139014 94.255184 -2.349608 -7.742100 -22.150039 1.866900 0.000000 -55.862400
1.533090 16.413539 2.575047 -44.444294 -61.764051 38.536784 -13.948277 -3.098816 -3.125343 7.279122 -14.551891 -8.529398 0.135929 3.624115 48.359284 3.062971 16.537627 -23.973169 -4.673600 -0.000000 -36.124900 2.899802 6.853797 -0.631149 2.025320 -5.933283 -131.851702 -2.752124 -8.788178 89.927099 -2.561371 -8.797208 -20.950530 1.823000 0.000001 -53.811801
1.554695 16.377731 2.582861 -44.472688 -62.346227 38.679403 -13.955313 -3.124450 -3.311487 6.835178 -14.249551 -8.811537 0.108746 3.693104 48.983630 3.096125 16.756273 -24.255683 -4.818300 -0.000000 -36.101900 2.988849 6.755667 -0.399128 1.404933 -5.991938 -129.795865 -1.994298 -8.366285 84.774958 -2.773713 -9.706804 -19.841855 1.721000 0.000000 -51.987000
1.579442 16.345868 2.590376 -44.518382 -63.060302 38.887614 -13.941231 -3.156692 -3.532999 6.299557 -13.857820 -9.076081 0.078295 3.752242 49.500688 3.133857 17.000202 -24.488796 -4.957800 -0.000000 -35.956200 3.110212 6.623683 -0.088357 0.671309 -5.945267 -127.444441 -1.161082 -7.851862 78.697624 -2.977694 -10.395012 -18.903308 1.575400 0.000000 -50.599800
1.606081 16.319269 2.597500 -44.565704 -63.920614 39.177790 -13.901265 -3.194866 -3.788024 5.666464 -13.363718 -9.355310 0.044000 3.796576 49.896178 3.174850 17.260919 -24.662373 -5.086800 0.000000 -35.693300 3.270033 6.449787 0.341466 -0.219251 -5.763844 -124.784430 -0.266811 -7.209059 71.539480 -3.169243 -10.822819 -18.157298 1.398499 -0.000000 -49.747800
1.633729 16.298964 2.603906 -44.604403 -64.926852 39.535184 -13.832561 -3.240397 -4.088316 4.936004 -12.739945 -9.626471 0.002668 3.824065 50.135350 3.214355 17.504771 -24.770757 -5.193500 0.000000 -35.320500 3.468356 6.231127 0.919346 -1.285142 -5.437579 -121.725946 0.663452 -6.373778 63.086333 -3.338754 -10.976535 -17.513717 1.182499 -0.000000 -49.517601
1.661232 16.285976 2.610212 -44.657156 -66.033014 39.975968 -13.743291 -3.295291 -4.434594 4.159734 -11.994170 -9.876727 -0.045510 3.835785 50.200437 3.247209 17.699613 -24.806777 -5.264900 -0.000000 -34.887100 3.690197 5.974460 1.669616 -2.527809 -4.988832 -118.078759 1.581766 -5.236444 52.997012 -3.478261 -10.939262 -16.731510 0.893901 0.000000 -49.828800
1.687686 16.281003 2.616916 -44.780397 -67.134736 40.485067 -13.646086 -3.362831 -4.827041 3.426563 -11.149415 -10.018067 -0.098698 3.836137 50.064537 3.265879 17.798769 -24.766723 -5.284700 -0.000000 -34.458000 3.895723 5.724876 2.563747 -3.947936 -4.499668 -113.430878 2.361617 -3.630455 40.804859 -3.580211 -10.982281 -15.311929 0.454200 0.000001 -50.742800
1.711145 16.284126 2.624057 -44.980454 -68.016132 40.859356 -13.552381 -3.430654 -5.228842 2.845514 -10.300242 -9.823063 -0.151268 3.832747 49.694811 3.262564 17.755031 -24.650484 -5.238200 -0.000000 -34.107700 4.012528 5.608665 3.397922 -5.510137 -4.194288 -107.119042 2.725426 -1.480798 26.318141 -3.630123 -11.582444 -12.583039 -0.262700 0.000000 -51.852600
1.728204 16.294405 2.628610 -44.992390 -68.443350 40.441273 -13.451671 -3.447304 -5.552703 2.382305 -9.641848 -8.846677 -0.201734 3.836229 49.010921 3.240847 17.581174 -24.455696 -5.129800 0.000000 -33.831600 4.002987 5.797993 3.711617 -7.160829 -4.356038 -98.700981 2.375566 0.760361 10.712880 -3.598386 -13.172566 -8.038836 -1.450400 0.000000 -52.865000
1.733952 16.309929 2.626470 -44.020941 -68.381483 38.141866 -13.314344 -3.334919 -5.712535 1.640034 -9.529325 -6.640965 -0.268502 3.861993 47.892331 3.236700 17.457165 -24.171475 -5.008400 0.000000 -33.378700 3.953227 6.254888 3.116496 -7.491193 -5.128355 -89.960258 1.859219 2.123151 -2.103714 -3.172080 -13.845532 -2.971297 -2.687200 0.000001 -52.499500
1.728320 16.330991 2.621228 -42.253192 -68.094206 34.559944 -13.155086 -3.129599 -5.738505 0.558162 -9.827903 -3.657182 -0.358105 3.896259 46.389748 3.260698 17.440538 -23.763776 -4.875800 0.000000 -32.805400 3.907930 6.687910 1.996188 -4.804720 -6.444839 -84.149921 2.013026 2.545880 -8.980810 -2.057848 -10.920883 0.385955 -2.843600 0.000000 -52.120700
1.713264 16.358449 2.616566 -40.652674 -67.900428 31.392483 -13.053141 -2.938887 -5.780608 -0.390363 -10.035890 -0.842077 -0.466723 3.929496 44.725009 3.266921 17.314075 -23.240617 -4.672300 -0.000000 -32.530700 3.920494 6.784321 1.210156 -1.210370 -7.772780 -85.350998 2.798805 1.928164 -3.468016 -0.509196 -5.857754 -2.536870 -2.073200 0.000001 -52.814000
1.688428 16.391717 2.610320 -39.452912 -67.715200 28.835548 -12.957959 -2.738393 -5.703468 -1.036627 -9.993665 1.501077 -0.554896 3.911874 43.073127 3.234184 17.005038 -22.633257 -4.402200 0.000000 -32.633200 3.949519 6.835836 0.525309 1.828963 -9.111630 -85.324852 3.379351 1.453761 0.274913 0.041880 -1.985632 -4.147052 -1.245300 0.000000 -54.166500
1.655173 16.429735 2.601942 -38.323059 -67.602174 26.707009 -12.853299 -2.542869 -5.555017 -1.539150 -9.795000 3.273050 -0.624517 3.846886 41.501496 3.176796 16.603835 -21.980678 -4.108200 0.000000 -32.946500 4.087710 6.862563 0.122771 3.101442 -10.174869 -83.967218 3.557144 1.132214 2.564125 0.149534 -0.557415 -4.936428 -0.908300 0.000000 -55.990100
1.616743 16.471386 2.593282 -37.133549 -67.558496 24.879121 -12.738687 -2.353682 -5.349707 -1.992957 -9.547354 4.511051 -0.677127 3.745972 40.045606 3.110599 16.200854 -21.312788 -3.823200 0.000000 -33.324300 4.361241 6.876307 -0.001064 2.559140 -10.769086 -81.229271 3.349183 0.959699 3.476642 0.204239 -1.639254 -4.891391 -1.243200 -0.000000 -58.310200
1.576064 16.515557 2.586054 -35.971009 -67.563322 23.378091 -12.628250 -2.169081 -5.094190 -2.379923 -9.300322 5.289866 -0.713303 3.623588 38.728296 3.042170 15.829574 -20.654239 -3.560000 0.000000 -33.713300 4.749687 6.860068 0.088066 0.582836 -10.716553 -77.174169 2.835999 0.910762 3.120958 0.247997 -4.907942 -3.894579 -2.254100 -0.000000 -60.857800
1.535211 16.561109 2.581407 -35.045746 -67.600164 22.315782 -12.541735 -1.982294 -4.787876 -2.613268 -9.050602 5.694426 -0.732429 3.492174 37.562226 2.970188 15.477066 -20.027056 -3.319400 0.000000 -34.111400 5.200460 6.776951 0.287164 -2.072479 -9.952842 -71.970518 2.161292 0.966432 1.479333 0.032428 -9.649383 -1.693084 -3.777901 0.000000 -63.049300
1.495956 16.606739 2.580154 -34.599417 -67.642359 21.791985 -12.501273 -1.786001 -4.434587 -2.590104 -8.782646 5.871094 -0.734422 3.365202 36.531936 2.890992 15.112319 -19.442883 -3.095700 0.000000 -34.551400 5.651049 6.595603 0.461549 -4.472883 -8.656885 -65.899039 1.520291 1.097575 -1.416315 -0.794375 -14.817471 2.061436 -5.525700 0.000000 -64.426300
